<svg width="38" height="38" viewBox="0 0 38 38" fill="none" xmlns="http://www.w3.org/2000/svg">
<path d="M10.7452 18.9C10.3218 18.9 9.96851 19.0436 9.68517 19.331C9.40184 19.6186 9.26017 19.975 9.26017 20.4V27.65C9.26017 28.075 9.40467 28.4311 9.69367 28.7185C9.98301 29.0061 10.3393 29.15 10.7627 29.15C11.1863 29.15 11.5418 29.0061 11.8292 28.7185C12.1165 28.4311 12.2602 28.075 12.2602 27.65V20.4C12.2602 19.975 12.1135 19.6186 11.8202 19.331C11.5272 19.0436 11.1688 18.9 10.7452 18.9ZM27.2377 8.14996C26.814 8.14996 26.4605 8.29363 26.1772 8.58096C25.8938 8.86863 25.7522 9.22496 25.7522 9.64996V27.65C25.7522 28.075 25.8968 28.4311 26.1862 28.7185C26.4752 29.0061 26.8315 29.15 27.2552 29.15C27.6785 29.15 28.0338 29.0061 28.3212 28.7185C28.6085 28.4311 28.7522 28.075 28.7522 27.65V9.64996C28.7522 9.22496 28.6057 8.86863 28.3127 8.58096C28.0193 8.29363 27.661 8.14996 27.2377 8.14996ZM18.9912 23.25C18.5638 23.25 18.2085 23.3936 17.9252 23.681C17.6418 23.9686 17.5002 24.325 17.5002 24.75V27.65C17.5002 28.075 17.6448 28.4311 17.9342 28.7185C18.2232 29.0061 18.5815 29.15 19.0092 29.15C19.4365 29.15 19.7918 29.0061 20.0752 28.7185C20.3585 28.4311 20.5002 28.075 20.5002 27.65V24.75C20.5002 24.325 20.3555 23.9686 20.0662 23.681C19.7772 23.3936 19.4188 23.25 18.9912 23.25ZM4.10767 37.299C3.18767 37.299 2.39001 36.9611 1.71467 36.2855C1.03901 35.6101 0.701172 34.8125 0.701172 33.8925V4.10746C0.701172 3.18413 1.03901 2.38363 1.71467 1.70596C2.39001 1.02796 3.18767 0.688965 4.10767 0.688965H33.8927C34.816 0.688965 35.6165 1.02796 36.2942 1.70596C36.9722 2.38363 37.3112 3.18413 37.3112 4.10746V33.8925C37.3112 34.8125 36.9722 35.6101 36.2942 36.2855C35.6165 36.9611 34.816 37.299 33.8927 37.299H4.10767ZM4.10767 33.8925H33.8927V4.10746H4.10767V33.8925ZM19.0092 18.9C19.4365 18.9 19.7918 18.7553 20.0752 18.466C20.3585 18.177 20.5002 17.8186 20.5002 17.391C20.5002 16.9636 20.3555 16.6083 20.0662 16.325C19.7772 16.0416 19.4188 15.9 18.9912 15.9C18.5638 15.9 18.2085 16.0446 17.9252 16.334C17.6418 16.623 17.5002 16.9813 17.5002 17.409C17.5002 17.8363 17.6448 18.1916 17.9342 18.475C18.2232 18.7583 18.5815 18.9 19.0092 18.9Z" fill="white"/>
</svg>
