<svg width="16" height="16" viewBox="0 0 16 16" fill="none" xmlns="http://www.w3.org/2000/svg">
<path d="M3.7217 13.4252C3.39814 13.4252 3.1262 13.315 2.90586 13.0945C2.68542 12.8742 2.5752 12.6023 2.5752 12.2787C2.5752 11.9551 2.68542 11.6834 2.90586 11.4635C3.1262 11.2435 3.39814 11.1335 3.7217 11.1335C4.04525 11.1335 4.31697 11.2435 4.53686 11.4635C4.75686 11.6834 4.86686 11.9551 4.86686 12.2787C4.86686 12.6023 4.75686 12.8742 4.53686 13.0945C4.31697 13.315 4.04525 13.4252 3.7217 13.4252ZM8.0017 13.4252C7.67892 13.4252 7.40736 13.315 7.18703 13.0945C6.96658 12.8742 6.85636 12.6023 6.85636 12.2787C6.85636 11.9551 6.96608 11.6834 7.18553 11.4635C7.40486 11.2435 7.67592 11.1335 7.99869 11.1335C8.32147 11.1335 8.59303 11.2435 8.81336 11.4635C9.03381 11.6834 9.14403 11.9551 9.14403 12.2787C9.14403 12.6023 9.03431 12.8742 8.81486 13.0945C8.59553 13.315 8.32447 13.4252 8.0017 13.4252ZM12.2787 13.4252C11.9551 13.4252 11.6834 13.315 11.4635 13.0945C11.2435 12.8742 11.1335 12.6023 11.1335 12.2787C11.1335 11.9551 11.2435 11.6834 11.4635 11.4635C11.6834 11.2435 11.9551 11.1335 12.2787 11.1335C12.6023 11.1335 12.8742 11.2435 13.0945 11.4635C13.315 11.6834 13.4252 11.9551 13.4252 12.2787C13.4252 12.6023 13.315 12.8742 13.0945 13.0945C12.8742 13.315 12.6023 13.4252 12.2787 13.4252ZM3.7217 9.14403C3.39814 9.14403 3.1262 9.03431 2.90586 8.81486C2.68542 8.59553 2.5752 8.32447 2.5752 8.0017C2.5752 7.67892 2.68542 7.40736 2.90586 7.18703C3.1262 6.96658 3.39814 6.85636 3.7217 6.85636C4.04525 6.85636 4.31697 6.96608 4.53686 7.18553C4.75686 7.40486 4.86686 7.67592 4.86686 7.99869C4.86686 8.32147 4.75686 8.59303 4.53686 8.81336C4.31697 9.03381 4.04525 9.14403 3.7217 9.14403ZM8.0017 9.14403C7.67892 9.14403 7.40736 9.03431 7.18703 8.81486C6.96658 8.59553 6.85636 8.32447 6.85636 8.0017C6.85636 7.67892 6.96608 7.40736 7.18553 7.18703C7.40486 6.96658 7.67592 6.85636 7.99869 6.85636C8.32147 6.85636 8.59303 6.96608 8.81336 7.18553C9.03381 7.40486 9.14403 7.67592 9.14403 7.99869C9.14403 8.32147 9.03431 8.59303 8.81486 8.81336C8.59553 9.03381 8.32447 9.14403 8.0017 9.14403ZM12.2787 9.14403C11.9551 9.14403 11.6834 9.03431 11.4635 8.81486C11.2435 8.59553 11.1335 8.32447 11.1335 8.0017C11.1335 7.67892 11.2435 7.40736 11.4635 7.18703C11.6834 6.96658 11.9551 6.85636 12.2787 6.85636C12.6023 6.85636 12.8742 6.96608 13.0945 7.18553C13.315 7.40486 13.4252 7.67592 13.4252 7.99869C13.4252 8.32147 13.315 8.59303 13.0945 8.81336C12.8742 9.03381 12.6023 9.14403 12.2787 9.14403ZM3.7217 4.86686C3.39814 4.86686 3.1262 4.75686 2.90586 4.53686C2.68542 4.31697 2.5752 4.04525 2.5752 3.72169C2.5752 3.39814 2.68542 3.1262 2.90586 2.90586C3.1262 2.68542 3.39814 2.5752 3.7217 2.5752C4.04525 2.5752 4.31697 2.68542 4.53686 2.90586C4.75686 3.1262 4.86686 3.39814 4.86686 3.72169C4.86686 4.04525 4.75686 4.31697 4.53686 4.53686C4.31697 4.75686 4.04525 4.86686 3.7217 4.86686ZM8.0017 4.86686C7.67892 4.86686 7.40736 4.75686 7.18703 4.53686C6.96658 4.31697 6.85636 4.04525 6.85636 3.72169C6.85636 3.39814 6.96608 3.1262 7.18553 2.90586C7.40486 2.68542 7.67592 2.5752 7.99869 2.5752C8.32147 2.5752 8.59303 2.68542 8.81336 2.90586C9.03381 3.1262 9.14403 3.39814 9.14403 3.72169C9.14403 4.04525 9.03431 4.31697 8.81486 4.53686C8.59553 4.75686 8.32447 4.86686 8.0017 4.86686ZM12.2787 4.86686C11.9551 4.86686 11.6834 4.75686 11.4635 4.53686C11.2435 4.31697 11.1335 4.04525 11.1335 3.72169C11.1335 3.39814 11.2435 3.1262 11.4635 2.90586C11.6834 2.68542 11.9551 2.5752 12.2787 2.5752C12.6023 2.5752 12.8742 2.68542 13.0945 2.90586C13.315 3.1262 13.4252 3.39814 13.4252 3.72169C13.4252 4.04525 13.315 4.31697 13.0945 4.53686C12.8742 4.75686 12.6023 4.86686 12.2787 4.86686Z" fill="#0C0C0C"/>
</svg>
