<svg width="48" height="49" viewBox="0 0 48 49" fill="none" xmlns="http://www.w3.org/2000/svg">
<path d="M14.2215 35.1152C12.8405 36.2885 11.3972 36.8148 9.89154 36.6942C8.38554 36.5735 7.08137 36.0472 5.97904 35.1152C4.87637 34.1835 4.14004 32.9833 3.77004 31.5147C3.40004 30.0463 3.68504 28.5303 4.62504 26.9667L8.66504 20.2122C7.77304 19.4882 7.06437 18.593 6.53904 17.5267C6.0137 16.4603 5.75104 15.316 5.75104 14.0937C5.75104 11.8993 6.5267 10.025 8.07804 8.47066C9.62937 6.91632 11.5 6.13916 13.69 6.13916C15.8714 6.13916 17.7399 6.91699 19.2955 8.47266C20.8515 10.0287 21.6295 11.8992 21.6295 14.0842C21.6295 16.2695 20.8515 18.14 19.2955 19.6957C17.7399 21.2517 15.8714 22.0297 13.69 22.0297C13.3427 22.0297 12.9954 22.0067 12.648 21.9607C12.3004 21.9147 11.9757 21.8417 11.674 21.7417L7.52154 28.7197C7.07887 29.4543 6.9397 30.1705 7.10404 30.8682C7.26837 31.5658 7.61487 32.1322 8.14354 32.5672C8.6722 33.0022 9.28987 33.2445 9.99654 33.2942C10.7032 33.3438 11.3739 33.0973 12.0085 32.5547L33.79 13.8467C35.1794 12.6657 36.6352 12.1252 38.1575 12.2252C39.6802 12.3252 40.9907 12.8452 42.089 13.7852C43.1877 14.7248 43.918 15.9382 44.28 17.4252C44.642 18.9118 44.357 20.4313 43.425 21.9837L39.4465 28.7502C40.3389 29.4662 41.0477 30.3563 41.573 31.4207C42.0984 32.4853 42.361 33.6298 42.361 34.8542C42.361 37.0458 41.578 38.918 40.012 40.4707C38.446 42.023 36.5632 42.7992 34.3635 42.7992C32.1639 42.7992 30.2985 42.0235 28.7675 40.4722C27.2362 38.9208 26.4705 37.0502 26.4705 34.8602C26.4705 32.6788 27.2362 30.8103 28.7675 29.2547C30.2985 27.6987 32.1645 26.9207 34.3655 26.9207C34.7005 26.9207 35.032 26.9353 35.36 26.9647C35.688 26.994 36.014 27.0547 36.338 27.1467L40.49 20.2307C40.933 19.5037 41.0682 18.7898 40.8955 18.0892C40.7229 17.3882 40.3722 16.822 39.8435 16.3907C39.3145 15.9593 38.697 15.7187 37.991 15.6687C37.2847 15.6187 36.6222 15.861 36.0035 16.3957L14.2215 35.1152ZM13.698 18.6112C14.945 18.6112 16.0109 18.168 16.8955 17.2817C17.7805 16.3957 18.223 15.3273 18.223 14.0767C18.223 12.8257 17.7779 11.7598 16.8875 10.8792C15.9975 9.99816 14.9272 9.55766 13.6765 9.55766C12.4255 9.55766 11.3597 10.0007 10.479 10.8867C9.59804 11.7723 9.15754 12.8428 9.15754 14.0982C9.15754 15.3452 9.60054 16.409 10.4865 17.2897C11.3722 18.1707 12.4427 18.6112 13.698 18.6112ZM34.3725 39.3927C35.6332 39.3927 36.71 38.9497 37.603 38.0637C38.496 37.178 38.9425 36.1075 38.9425 34.8522C38.9425 33.6052 38.496 32.5393 37.603 31.6547C36.7104 30.7697 35.6315 30.3272 34.3665 30.3272C33.1099 30.3272 32.0495 30.7723 31.1855 31.6627C30.3212 32.5527 29.889 33.623 29.889 34.8737C29.889 36.1247 30.3212 37.1905 31.1855 38.0712C32.0495 38.9522 33.1119 39.3927 34.3725 39.3927Z" fill="#0C0C0C"/>
</svg>
