<svg width="49" height="48" viewBox="0 0 49 48" fill="none" xmlns="http://www.w3.org/2000/svg">
<path d="M8.9043 6.18945H15.9043C16.3892 6.18948 16.769 6.34058 17.0781 6.63184C17.4045 6.93905 17.644 7.35134 17.7822 7.89355V7.89453L19.125 13.9697C19.1997 14.4878 19.1859 14.9279 19.0977 15.2988C19.0129 15.6553 18.8396 15.9572 18.5713 16.2129L18.916 16.5752L18.5703 16.2129L18.5645 16.2188L13.5283 21.1855L13.249 21.4609L13.4492 21.7979C14.2932 23.2162 15.1892 24.543 16.1367 25.7783C17.0835 27.0127 18.1352 28.1871 19.29 29.3018V29.3027C20.5078 30.5621 21.7806 31.7031 23.1074 32.7246C24.4361 33.7476 25.8238 34.6418 27.2695 35.4072L27.5996 35.582L27.8613 35.3145L32.6709 30.3789L32.6807 30.3691C32.9733 30.0514 33.2932 29.8329 33.6416 29.7021L33.792 29.6514C34.218 29.525 34.6435 29.5038 35.0752 29.5869L40.749 30.8428C41.218 30.9723 41.5945 31.1919 41.8916 31.499L42.0137 31.6367C42.3231 32.0104 42.4775 32.438 42.4775 32.9404V39.7627C42.4775 40.3619 42.2803 40.835 41.8926 41.2188C41.502 41.6053 41.0291 41.7998 40.4404 41.7998C36.6076 41.7998 32.6954 40.8787 28.7002 39.0225C24.7058 37.1667 20.9961 34.5293 17.5723 31.1055C14.1488 27.682 11.5101 23.9711 9.65039 19.9727C7.79 15.9732 6.86719 12.0629 6.86719 8.23828C6.86722 7.71421 7.01666 7.28361 7.31348 6.92383L7.4502 6.77441C7.83692 6.38557 8.31013 6.18945 8.9043 6.18945ZM9.29785 9.12988C9.35813 10.519 9.57663 11.9829 9.9502 13.5195C10.3253 15.0623 10.9152 16.7744 11.7158 18.6533L12.0059 19.332L12.5283 18.8115L16.5664 14.7949L16.7598 14.6025L16.7031 14.3359L15.5654 9.00391L15.4805 8.6084H9.27539L9.29785 9.12988ZM40.0586 33.1621L39.6602 33.0791L34.6895 32.0508L34.417 31.9951L34.2256 32.1953L30.2998 36.3096L29.8184 36.8145L30.4512 37.1084C31.8095 37.7403 33.2854 38.2554 34.877 38.6543C36.4698 39.0534 38.0221 39.2917 39.5332 39.3682L40.0586 39.3945V33.1621Z" fill="#0C0C0C" stroke="#0C0C0C"/>
</svg>
