<svg width="16" height="16" viewBox="0 0 16 16" fill="none" xmlns="http://www.w3.org/2000/svg">
<path d="M11.9247 12.7492V13.8183C11.9247 13.9732 11.8714 14.1033 11.7647 14.2085C11.658 14.3136 11.5206 14.3662 11.3526 14.3662C11.1925 14.3662 11.0586 14.3116 10.9509 14.2025C10.8431 14.0934 10.7892 13.9587 10.7892 13.7983V11.3053C10.7892 11.1649 10.8388 11.0451 10.9379 10.946C11.037 10.8469 11.1568 10.7973 11.2972 10.7973H13.7902C13.9506 10.7973 14.0853 10.8528 14.1944 10.9638C14.3035 11.0747 14.3581 11.216 14.3581 11.3878C14.3581 11.5436 14.3047 11.6734 14.1981 11.7772C14.0915 11.8809 13.9622 11.9328 13.8102 11.9328H12.7244L14.3921 13.6005C14.5054 13.7152 14.5614 13.849 14.5601 14.002C14.5587 14.155 14.503 14.2873 14.3929 14.3988C14.2772 14.5104 14.1406 14.5668 13.9831 14.5682C13.8256 14.5695 13.6899 14.5135 13.5759 14.4002L11.9247 12.7492ZM7.99973 14.7662C7.06351 14.7662 6.1839 14.589 5.3609 14.2348C4.53779 13.8806 3.82112 13.399 3.2109 12.79C2.60057 12.1809 2.1184 11.468 1.7644 10.6513C1.4104 9.83477 1.2334 8.96205 1.2334 8.03316C1.2334 7.08949 1.4104 6.20438 1.7644 5.37783C2.1184 4.55127 2.60051 3.8316 3.21073 3.21883C3.82095 2.60594 4.53757 2.12116 5.36057 1.76449C6.18345 1.40783 7.06301 1.22949 7.99923 1.22949C8.93534 1.22949 9.81484 1.40783 10.6377 1.76449C11.4607 2.12116 12.1776 2.60594 12.7884 3.21883C13.3992 3.83171 13.8821 4.55144 14.2372 5.37799C14.5925 6.20444 14.7701 7.08949 14.7701 8.03316C14.7701 8.17283 14.7645 8.31121 14.7534 8.44833C14.7423 8.58555 14.727 8.72399 14.7074 8.86366C14.6884 9.03966 14.6139 9.18371 14.4839 9.29583C14.3539 9.40794 14.2031 9.46399 14.0316 9.46399C13.8773 9.46399 13.7532 9.40588 13.6591 9.28966C13.565 9.17344 13.5277 9.03938 13.5472 8.88749C13.5668 8.74794 13.5849 8.60555 13.6016 8.46033C13.6182 8.31521 13.6266 8.17283 13.6266 8.03316C13.6266 7.77949 13.6102 7.52716 13.5774 7.27616C13.5445 7.02516 13.4952 6.7746 13.4296 6.52449H10.7837C10.8033 6.78005 10.8235 7.0331 10.8444 7.28366C10.8654 7.5341 10.8759 7.78394 10.8759 8.03316C10.8759 8.18327 10.8697 8.33427 10.8572 8.48616C10.8448 8.63816 10.8343 8.78921 10.8259 8.93933C10.8173 9.08255 10.7616 9.20577 10.6587 9.30899C10.5558 9.41232 10.4315 9.46399 10.2857 9.46399C10.1484 9.46399 10.036 9.41555 9.9484 9.31866C9.86084 9.22188 9.82129 9.10499 9.82973 8.96799C9.8494 8.81899 9.86201 8.66316 9.86757 8.50049C9.87312 8.33794 9.8759 8.18216 9.8759 8.03316C9.8759 7.78305 9.86884 7.5316 9.85473 7.27883C9.84062 7.02605 9.81684 6.7746 9.7834 6.52449H6.23957C6.20145 6.77738 6.17407 7.02883 6.1574 7.27883C6.14073 7.52883 6.1324 7.77749 6.1324 8.02483C6.1324 8.27216 6.14062 8.5176 6.15707 8.76116C6.1734 9.00471 6.19801 9.24827 6.2309 9.49183H9.0794C9.22218 9.49183 9.34123 9.53938 9.43657 9.63449C9.53179 9.72949 9.5794 9.84827 9.5794 9.99082C9.5794 10.1333 9.53151 10.251 9.43573 10.3442C9.33984 10.4373 9.22107 10.4838 9.0794 10.4838H6.41573C6.56862 11.0675 6.75468 11.6415 6.9739 12.206C7.19323 12.7705 7.53384 13.2468 7.99573 13.6347C8.14751 13.6347 8.29929 13.6257 8.45107 13.6077C8.60284 13.5897 8.75407 13.5709 8.90473 13.5513C9.04562 13.5318 9.17334 13.5717 9.2879 13.6712C9.40257 13.7707 9.4599 13.889 9.4599 14.026C9.4599 14.2029 9.40612 14.353 9.29857 14.4763C9.19112 14.5998 9.0559 14.6713 8.8929 14.6908C8.74212 14.713 8.59284 14.7312 8.44507 14.7452C8.29718 14.7592 8.14873 14.7662 7.99973 14.7662ZM2.5659 9.49183H5.21573C5.18795 9.24827 5.16712 9.00471 5.15323 8.76116C5.13934 8.5176 5.1324 8.27494 5.1324 8.03316C5.1324 7.78305 5.13729 7.5316 5.14707 7.27883C5.15684 7.02605 5.17418 6.7746 5.19907 6.52449H2.56473C2.4994 6.77583 2.45045 7.02716 2.4179 7.27849C2.38523 7.52982 2.3689 7.78249 2.3689 8.03649C2.3689 8.28716 2.38534 8.53244 2.41823 8.77233C2.45101 9.0121 2.50023 9.25194 2.5659 9.49183ZM6.5744 13.4513C6.28284 13.0011 6.04184 12.5266 5.8514 12.0278C5.66095 11.5292 5.50995 11.0145 5.3984 10.4838H2.89823C3.26223 11.2256 3.76423 11.8563 4.40423 12.376C5.04412 12.8955 5.76751 13.254 6.5744 13.4513ZM2.89823 5.53249H5.37557C5.49968 5.00183 5.65762 4.48438 5.8494 3.98016C6.04118 3.47583 6.2884 2.99299 6.59107 2.53166C5.80484 2.79566 5.09007 3.1791 4.44673 3.68199C3.80329 4.18499 3.28712 4.80183 2.89823 5.53249ZM6.41573 5.53249H9.6004C9.45595 4.93771 9.25662 4.36388 9.0024 3.81099C8.74818 3.2581 8.41262 2.76499 7.99573 2.33166C7.57929 2.7751 7.24451 3.27144 6.9914 3.82066C6.73829 4.36977 6.5464 4.94038 6.41573 5.53249ZM10.6394 5.53249H13.0972C12.711 4.80438 12.197 4.18544 11.5552 3.67566C10.9135 3.16588 10.2007 2.7901 9.41707 2.54832C9.71973 2.99855 9.96695 3.47644 10.1587 3.98199C10.3505 4.48755 10.5107 5.00438 10.6394 5.53249Z" fill="#0C0C0C"/>
</svg>
