<svg width="16" height="16" viewBox="0 0 16 16" fill="none" xmlns="http://www.w3.org/2000/svg">
<path d="M3.90007 12.0995L2.20307 13.7965C2.02351 13.976 1.81701 14.0174 1.58357 13.9207C1.35012 13.824 1.2334 13.6513 1.2334 13.4027V2.36899C1.2334 2.06121 1.34601 1.79438 1.57123 1.56849C1.79634 1.34249 2.06223 1.22949 2.3689 1.22949H13.6306C13.9383 1.22949 14.2052 1.34249 14.4311 1.56849C14.6571 1.79438 14.7701 2.06121 14.7701 2.36899V10.964C14.7701 11.2707 14.6571 11.5365 14.4311 11.7617C14.2052 11.9869 13.9383 12.0995 13.6306 12.0995H3.90007ZM3.46673 10.964H13.6306V2.36899H2.3689V12.1618L3.46673 10.964ZM4.49973 9.34983H8.7164C8.85807 9.34983 8.97684 9.3016 9.07273 9.20516C9.16851 9.10883 9.2164 8.98938 9.2164 8.84683C9.2164 8.70438 9.16851 8.58594 9.07273 8.49149C8.97684 8.39705 8.85807 8.34983 8.7164 8.34983H4.49973C4.35807 8.34983 4.23934 8.39805 4.14357 8.49449C4.04768 8.59083 3.99973 8.71027 3.99973 8.85283C3.99973 8.99527 4.04768 9.11371 4.14357 9.20816C4.23934 9.3026 4.35807 9.34983 4.49973 9.34983ZM4.49973 7.18316H11.4997C11.6414 7.18316 11.7602 7.13494 11.8561 7.03849C11.9518 6.94216 11.9997 6.82271 11.9997 6.68016C11.9997 6.53771 11.9518 6.41927 11.8561 6.32483C11.7602 6.23038 11.6414 6.18316 11.4997 6.18316H4.49973C4.35807 6.18316 4.23934 6.23138 4.14357 6.32783C4.04768 6.42416 3.99973 6.5436 3.99973 6.68616C3.99973 6.8286 4.04768 6.94705 4.14357 7.04149C4.23934 7.13594 4.35807 7.18316 4.49973 7.18316ZM4.49973 5.01649H11.4997C11.6414 5.01649 11.7602 4.96827 11.8561 4.87183C11.9518 4.77549 11.9997 4.65605 11.9997 4.51349C11.9997 4.37105 11.9518 4.2526 11.8561 4.15816C11.7602 4.06371 11.6414 4.01649 11.4997 4.01649H4.49973C4.35807 4.01649 4.23934 4.06471 4.14357 4.16116C4.04768 4.25749 3.99973 4.37694 3.99973 4.51949C3.99973 4.66194 4.04768 4.78038 4.14357 4.87483C4.23934 4.96927 4.35807 5.01649 4.49973 5.01649Z" fill="#0C0C0C"/>
</svg>
