<svg width="25" height="24" viewBox="0 0 25 24" fill="none" xmlns="http://www.w3.org/2000/svg">
<path d="M10.2207 6.67285C10.3215 6.67285 10.3985 6.70326 10.4766 6.78125L15.4209 11.7256C15.4748 11.7795 15.5 11.8215 15.5117 11.8496V11.8506C15.5265 11.8861 15.5352 11.9259 15.5352 11.9746C15.5352 12.0233 15.5265 12.0631 15.5117 12.0986V12.0996C15.5 12.1277 15.4748 12.1697 15.4209 12.2236L10.4521 17.1924C10.3744 17.2702 10.3072 17.292 10.2266 17.2891C10.1325 17.2856 10.0517 17.2537 9.96582 17.168C9.8877 17.0898 9.85645 17.013 9.85645 16.9121C9.85645 16.8112 9.8877 16.7344 9.96582 16.6562L14.6475 11.9746L9.94043 7.26758C9.86276 7.18988 9.84082 7.12357 9.84375 7.04297C9.8472 6.9487 9.87977 6.86731 9.96582 6.78125C10.0437 6.70344 10.1201 6.67293 10.2207 6.67285Z" fill="#0C0C0C" stroke="#0C0C0C"/>
</svg>
