<svg width="24" height="24" viewBox="0 0 24 24" fill="none" xmlns="http://www.w3.org/2000/svg">
<path d="M8.84121 11.0555L11.0495 8.84721L9.26996 7.07396L8.58321 7.74896C8.42921 7.90679 8.25121 7.98379 8.04921 7.97996C7.84721 7.97596 7.66921 7.89896 7.51521 7.74896C7.36521 7.59496 7.29021 7.41596 7.29021 7.21196C7.29021 7.00796 7.36521 6.83096 7.51521 6.68096L8.20221 5.99396L6.36896 4.19171L4.16671 6.40596L8.84121 11.0555ZM17.575 19.8392L19.7832 17.606L17.944 15.7727L17.263 16.4597C17.109 16.6097 16.93 16.6847 16.726 16.6847C16.522 16.6847 16.345 16.6077 16.195 16.4537C16.0411 16.2997 15.9642 16.1207 15.9642 15.9167C15.9642 15.7127 16.0411 15.5338 16.195 15.38L16.876 14.699L15.1217 12.9385L12.9075 15.1527L17.575 19.8392ZM3.70221 21.1495C3.45755 21.1495 3.25446 21.0686 3.09296 20.907C2.9313 20.7455 2.85046 20.5424 2.85046 20.2977V17.388C2.85046 17.2721 2.86913 17.1665 2.90646 17.0712C2.9438 16.9759 3.00813 16.8825 3.09946 16.7912L7.67071 12.22L2.75821 7.31346C2.49688 7.04829 2.36938 6.74379 2.37571 6.39996C2.38205 6.05613 2.50955 5.75163 2.75821 5.48646L5.43646 2.76421C5.69763 2.49888 6.00013 2.36621 6.34396 2.36621C6.6878 2.36621 6.9923 2.49688 7.25746 2.75821L12.22 7.70171L16.6342 3.28746C16.7882 3.13346 16.9599 3.02113 17.1492 2.95046C17.3385 2.87979 17.5288 2.84446 17.72 2.84446C17.9113 2.84446 18.1016 2.87979 18.291 2.95046C18.4803 3.02113 18.652 3.13346 18.806 3.28746L20.7125 5.18796C20.8665 5.34196 20.9788 5.51363 21.0495 5.70296C21.1201 5.89229 21.1555 6.08263 21.1555 6.27396C21.1555 6.46913 21.1201 6.66138 21.0495 6.85071C20.9788 7.04004 20.8665 7.21171 20.7125 7.36571L16.2982 11.774L21.2417 16.7175C21.503 16.9826 21.6337 17.2871 21.6337 17.631C21.6337 17.9748 21.503 18.2773 21.2417 18.5385L18.5445 21.2167C18.2793 21.478 17.9748 21.6087 17.631 21.6087C17.2871 21.6087 16.9826 21.478 16.7175 21.2167L11.793 16.2925L7.19671 20.8945C7.10538 20.9858 7.01205 21.0511 6.91671 21.0905C6.82155 21.1298 6.71796 21.1495 6.60596 21.1495H3.70221ZM4.48796 19.512H6.24396L15.8717 9.85321L14.1217 8.09721L4.48796 17.75V19.512ZM14.9967 8.97221L14.1217 8.09721L15.8717 9.85321L14.9967 8.97221Z" fill="#0C0C0C"/>
</svg>
