<svg width="49" height="48" viewBox="0 0 49 48" fill="none" xmlns="http://www.w3.org/2000/svg">
<path d="M24.3387 29.662C24.845 29.662 25.2677 29.49 25.6067 29.146C25.9457 28.802 26.1152 28.3783 26.1152 27.875C26.1152 27.372 25.946 26.9481 25.6077 26.6035C25.269 26.2591 24.8467 26.087 24.3407 26.087C23.8343 26.087 23.4097 26.2581 23.0667 26.6005C22.7237 26.9428 22.5522 27.3671 22.5522 27.8735C22.5522 28.3768 22.7233 28.8006 23.0657 29.145C23.408 29.4896 23.8323 29.662 24.3387 29.662ZM24.3427 22.6215C24.797 22.6215 25.171 22.4726 25.4647 22.175C25.7583 21.877 25.9052 21.5011 25.9052 21.0475V11.5715C25.9052 11.1265 25.7555 10.7533 25.4562 10.452C25.1565 10.1506 24.7793 9.99996 24.3247 9.99996C23.8703 9.99996 23.4963 10.149 23.2027 10.447C22.909 10.7446 22.7622 11.1203 22.7622 11.574V21.05C22.7622 21.4953 22.9118 21.8686 23.2112 22.17C23.5108 22.471 23.888 22.6215 24.3427 22.6215ZM12.0347 36.299L6.94367 41.39C6.405 41.9286 5.7855 42.0528 5.08517 41.7625C4.38483 41.4725 4.03467 40.9545 4.03467 40.2085V7.10746C4.03467 6.18413 4.3725 5.38363 5.04817 4.70596C5.7235 4.02796 6.52117 3.68896 7.44117 3.68896H41.2262C42.1495 3.68896 42.95 4.02796 43.6277 4.70596C44.3057 5.38363 44.6447 6.18413 44.6447 7.10746V32.8925C44.6447 33.8125 44.3057 34.6101 43.6277 35.2855C42.95 35.9611 42.1495 36.299 41.2262 36.299H12.0347ZM10.7347 32.8925H41.2262V7.10746H7.44117V36.486L10.7347 32.8925Z" fill="white"/>
</svg>
