<svg width="49" height="48" viewBox="0 0 49 48" fill="none" xmlns="http://www.w3.org/2000/svg">
<path d="M24.333 4.18945C28.5118 4.18945 32.1882 5.64887 35.3818 8.58691C38.5468 11.4983 40.1445 15.4056 40.1445 20.3643C40.1445 22.4108 39.693 24.4502 38.7822 26.4854C37.8601 28.5461 36.7029 30.5192 35.3115 32.4033C33.9143 34.2953 32.3961 36.0612 30.7568 37.7012C29.1053 39.3537 27.5633 40.8171 26.1318 42.0918L26.1211 42.1025C25.8855 42.3254 25.6131 42.4869 25.2988 42.5889C24.9601 42.6987 24.6331 42.751 24.3174 42.751C24.0021 42.7509 23.6821 42.6985 23.3555 42.5898C23.0524 42.489 22.79 42.3288 22.5635 42.1074L22.5547 42.0996L22.5449 42.0908C21.106 40.8165 19.5613 39.3533 17.9102 37.7012C16.2707 36.0611 14.7519 34.2955 13.3545 32.4033C11.9632 30.5194 10.8087 28.5468 9.89062 26.4863C8.98357 24.4509 8.53418 22.4113 8.53418 20.3643C8.53422 15.4054 10.13 11.4983 13.291 8.58691C16.4805 5.64909 20.1543 4.18949 24.333 4.18945ZM24.333 6.6084C20.5903 6.6084 17.4096 7.89501 14.8232 10.4668C12.2284 13.047 10.9405 16.3608 10.9404 20.3643C10.9404 23.0659 12.0721 26.0472 14.252 29.2939C16.4323 32.5414 19.6837 36.17 23.9922 40.1777L24.3291 40.4902L24.6689 40.1816C29.0785 36.1813 32.3599 32.5527 34.4932 29.2959V29.2949C36.6222 26.0442 37.7256 23.0625 37.7256 20.3643C37.7255 16.3608 36.4376 13.047 33.8428 10.4668C31.2558 7.89521 28.0755 6.60847 24.333 6.6084ZM24.3291 16.9053C25.193 16.9054 25.9144 17.2032 26.5225 17.8086C27.1297 18.4132 27.4287 19.1326 27.4287 19.9961C27.4287 20.8601 27.131 21.5799 26.5264 22.1836C25.922 22.7869 25.2021 23.0839 24.3379 23.084C23.581 23.084 22.9348 22.8575 22.3809 22.3984L22.1494 22.1875C21.5467 21.5871 21.25 20.8692 21.25 20.0049C21.25 19.2479 21.4767 18.6003 21.9365 18.043L22.1475 17.8096C22.7481 17.2033 23.4658 16.9053 24.3291 16.9053Z" fill="#0C0C0C" stroke="#0C0C0C"/>
</svg>
