<svg width="48" height="48" viewBox="0 0 48 48" fill="none" xmlns="http://www.w3.org/2000/svg">
<path d="M7.10742 8.18945H40.8926C41.6776 8.18945 42.3526 8.47154 42.9404 9.05957V9.06055C43.5285 9.64841 43.8115 10.3233 43.8115 11.1084V36.8926C43.8115 37.5762 43.5954 38.1763 43.1475 38.708L42.9414 38.9316C42.3537 39.5177 41.6783 39.7998 40.8926 39.7998H7.10742C6.3258 39.7997 5.65385 39.5184 5.06836 38.9326C4.4825 38.347 4.20117 37.6744 4.20117 36.8926V11.1084C4.20117 10.3228 4.48251 9.64726 5.06836 9.05957H5.06934C5.65497 8.47166 6.32636 8.18951 7.10742 8.18945ZM6.60742 11.2139V37.3926H41.3926V13.2051L40.6182 13.7158L24.6699 24.2148C24.5334 24.2867 24.4092 24.3445 24.2969 24.3887C24.2299 24.415 24.1343 24.4355 24 24.4355C23.8657 24.4355 23.7701 24.415 23.7031 24.3887C23.5897 24.3441 23.4643 24.2858 23.3262 24.2129L7.60742 13.8633V11.8691L23.7266 22.4258L24 22.6055L24.2734 22.4268L40.9658 11.5264L42.373 10.6084H5.68164L6.60742 11.2139Z" fill="#0C0C0C" stroke="#0C0C0C"/>
</svg>
