<svg width="16" height="16" viewBox="0 0 16 16" fill="none" xmlns="http://www.w3.org/2000/svg">
<path d="M7.99973 14.7662C7.04995 14.7662 6.16368 14.5918 5.3409 14.2432C4.51823 13.8945 3.80229 13.4156 3.19307 12.8065C2.58395 12.1973 2.10507 11.4813 1.7564 10.6587C1.40773 9.83588 1.2334 8.9496 1.2334 7.99983C1.2334 7.05016 1.40773 6.16416 1.7564 5.34183C2.10495 4.51938 2.58362 3.80321 3.1924 3.19332C3.80118 2.58344 4.51707 2.10366 5.34007 1.75399C6.16307 1.40433 7.04962 1.22949 7.99973 1.22949C8.15162 1.22949 8.28423 1.28694 8.39757 1.40182C8.5109 1.5166 8.56757 1.64988 8.56757 1.80166C8.56757 1.95332 8.5109 2.08583 8.39757 2.19916C8.28423 2.31238 8.15162 2.36899 7.99973 2.36899C6.44095 2.36899 5.11279 2.91777 4.01523 4.01533C2.91768 5.11288 2.3689 6.44105 2.3689 7.99983C2.3689 9.55849 2.91768 10.8867 4.01523 11.9843C5.11279 13.0819 6.44095 13.6307 7.99973 13.6307C9.5584 13.6307 10.8866 13.0819 11.9842 11.9843C13.0818 10.8868 13.6306 9.5586 13.6306 7.99983C13.6306 7.84794 13.6872 7.71533 13.8004 7.60199C13.9137 7.48866 14.0462 7.43199 14.1979 7.43199C14.3497 7.43199 14.483 7.48866 14.5977 7.60199C14.7126 7.71533 14.7701 7.84794 14.7701 7.99983C14.7701 8.94994 14.5952 9.83649 14.2454 10.6595C13.8955 11.4826 13.416 12.1986 12.8067 12.8075C12.1975 13.4164 11.4815 13.895 10.6587 14.2435C9.83607 14.5919 8.94973 14.7662 7.99973 14.7662Z" fill="#0C0C0C"/>
</svg>
