<svg width="16" height="16" viewBox="0 0 16 16" fill="none" xmlns="http://www.w3.org/2000/svg">
<path d="M11.9239 9.29306H4.88889C4.05622 9.29306 3.35 8.99622 2.77022 8.40256C2.19034 7.809 1.90039 7.09589 1.90039 6.26322C1.90039 5.41845 2.19034 4.69889 2.77022 4.10456C3.35 3.51011 4.05622 3.21289 4.88889 3.21289C5.05156 3.21289 5.1875 3.26756 5.29672 3.37689C5.40595 3.48611 5.46056 3.62217 5.46056 3.78506C5.46056 3.94783 5.40595 4.08311 5.29672 4.19089C5.1875 4.29856 5.05156 4.35239 4.88889 4.35239C4.37145 4.35239 3.93328 4.53878 3.57439 4.91156C3.21539 5.28422 3.03589 5.73478 3.03589 6.26322C3.03589 6.78067 3.21539 7.22506 3.57439 7.59639C3.93328 7.96783 4.37145 8.15356 4.88889 8.15356H11.9239L9.69422 5.89439C9.581 5.78117 9.52717 5.64883 9.53272 5.49739C9.53828 5.34606 9.59767 5.21317 9.71089 5.09872C9.82422 4.98283 9.95683 4.92489 10.1087 4.92489C10.2607 4.92489 10.3947 4.98283 10.5106 5.09872L13.7059 8.32739C13.8164 8.44161 13.8717 8.5745 13.8717 8.72606C13.8717 8.8775 13.8164 9.00983 13.7059 9.12306L10.5106 12.3517C10.3972 12.4649 10.2619 12.5223 10.1046 12.5237C9.94722 12.5252 9.81178 12.4678 9.69822 12.3517C9.58211 12.2408 9.52478 12.1088 9.52622 11.9557C9.52767 11.8026 9.585 11.6694 9.69822 11.5561L11.9239 9.29306Z" fill="#0C0C0C"/>
</svg>
