<svg width="49" height="48" viewBox="0 0 49 48" fill="none" xmlns="http://www.w3.org/2000/svg">
<path d="M24.6667 40.8046C28.16 39.6059 31.0572 37.4662 33.3582 34.3856C35.6588 31.3046 37.0092 27.8427 37.4092 24.0001H24.6667V7.36957L11.7742 12.1836V21.9001C11.7742 22.2921 11.7825 22.6337 11.7992 22.9251C11.8158 23.2164 11.8575 23.5747 11.9242 24.0001H24.6667V40.8046ZM24.6667 44.0871C24.476 44.0871 24.2938 44.0684 24.1202 44.0311C23.9462 43.9937 23.7678 43.9377 23.5852 43.8631C18.9118 42.2964 15.2073 39.4522 12.4717 35.3306C9.73568 31.2089 8.36768 26.7154 8.36768 21.8501V12.1336C8.36768 11.4126 8.57301 10.7559 8.98368 10.1636C9.39401 9.57124 9.92634 9.14641 10.5807 8.88907L23.4732 4.07507C23.8798 3.92574 24.2777 3.85107 24.6667 3.85107C25.0557 3.85107 25.4535 3.92574 25.8602 4.07507L38.7527 8.88907C39.407 9.14641 39.9413 9.57124 40.3557 10.1636C40.7703 10.7559 40.9777 11.4126 40.9777 12.1336V21.8501C40.9777 26.7154 39.6077 31.2089 36.8677 35.3306C34.128 39.4522 30.4215 42.2964 25.7482 43.8631C25.5655 43.9377 25.3872 43.9937 25.2132 44.0311C25.0395 44.0684 24.8573 44.0871 24.6667 44.0871Z" fill="white"/>
</svg>
