<svg width="24" height="24" viewBox="0 0 24 24" fill="none" xmlns="http://www.w3.org/2000/svg">
<path d="M2.69784 18.1019C2.45617 18.1019 2.25459 18.02 2.09309 17.8562C1.93142 17.6925 1.85059 17.4905 1.85059 17.2502V6.75019C1.85059 6.50985 1.93284 6.30785 2.09734 6.14419C2.26184 5.98035 2.46492 5.89844 2.70659 5.89844C2.94825 5.89844 3.14992 5.98035 3.31159 6.14419C3.47309 6.30785 3.55384 6.50985 3.55384 6.75019V17.2502C3.55384 17.4905 3.47159 17.6925 3.30709 17.8562C3.14259 18.02 2.9395 18.1019 2.69784 18.1019ZM18.8858 12.8519H6.88059C6.64009 12.8519 6.438 12.7696 6.27434 12.6049C6.11067 12.4404 6.02884 12.2374 6.02884 11.9957C6.02884 11.7542 6.11067 11.5526 6.27434 11.3909C6.438 11.2293 6.64009 11.1484 6.88059 11.1484H18.8858L15.3903 7.62194C15.2163 7.45194 15.1303 7.25302 15.1323 7.02519C15.1343 6.79735 15.2203 6.59844 15.3903 6.42844C15.5602 6.25844 15.7581 6.17344 15.9841 6.17344C16.2099 6.17344 16.4098 6.25844 16.5838 6.42844L21.5528 11.3974C21.6442 11.4888 21.7105 11.5852 21.7518 11.6867C21.793 11.7882 21.8136 11.8938 21.8136 12.0034C21.8136 12.1133 21.793 12.2178 21.7518 12.3169C21.7105 12.4163 21.6442 12.5116 21.5528 12.6029L16.5838 17.5719C16.4098 17.7419 16.2086 17.8279 15.9801 17.8297C15.7516 17.8317 15.5537 17.751 15.3863 17.5877C15.215 17.4112 15.1293 17.2041 15.1293 16.9664C15.1293 16.7288 15.2143 16.5244 15.3843 16.3534L18.8858 12.8519Z" fill="#0C0C0C"/>
</svg>
