<svg width="16" height="16" viewBox="0 0 16 16" fill="none" xmlns="http://www.w3.org/2000/svg">
<path d="M12.8095 10.6835C12.0105 10.6835 11.3288 10.437 10.7645 9.94388C10.2003 9.45077 9.83772 8.81532 9.67683 8.03755H7.49883C7.3505 8.03755 7.22611 7.9876 7.12567 7.88771C7.02522 7.78794 6.975 7.66294 6.975 7.51271C6.975 7.36249 7.02522 7.23777 7.12567 7.13855C7.22611 7.03932 7.3505 6.98971 7.49883 6.98971H9.67683C9.70783 6.69994 9.78806 6.41255 9.9175 6.12755C10.0471 5.84244 10.2131 5.58466 10.4155 5.35421H5.92283C5.77217 5.35421 5.64717 5.30427 5.54783 5.20438C5.4485 5.1046 5.39883 4.9796 5.39883 4.82938C5.39883 4.67916 5.4485 4.55444 5.54783 4.45521C5.64717 4.35599 5.77217 4.30638 5.92283 4.30638H11.0148L10.1142 1.67088H7.88917C7.74072 1.67088 7.61628 1.62094 7.51583 1.52105C7.41539 1.42127 7.36517 1.29627 7.36517 1.14605C7.36517 0.995825 7.41539 0.871102 7.51583 0.77188C7.61628 0.672658 7.74072 0.623047 7.88917 0.623047H10.0503C10.3016 0.623047 10.5252 0.695658 10.7213 0.84088C10.9174 0.986103 11.0543 1.17316 11.1318 1.40205L12.1127 4.30638H12.6428C13.6205 4.30638 14.4244 4.5966 15.0547 5.17705C15.6849 5.75749 16 6.53077 16 7.49688C16 8.3691 15.6857 9.11827 15.057 9.74438C14.4283 10.3705 13.6792 10.6835 12.8095 10.6835ZM12.8095 9.63971C13.3819 9.63971 13.8828 9.4266 14.3122 9.00038C14.7415 8.57416 14.9562 8.07327 14.9562 7.49771C14.9562 6.88827 14.7559 6.37999 14.3555 5.97288C13.9549 5.56577 13.4509 5.36088 12.8433 5.35821C12.8313 5.35821 12.7782 5.36099 12.684 5.36655C12.5898 5.3721 12.538 5.37488 12.5287 5.37488L13.0167 6.70571C13.0722 6.83582 13.0688 6.96399 13.0063 7.09021C12.9439 7.21644 12.8427 7.30866 12.7027 7.36688C12.5739 7.41399 12.4457 7.4061 12.3182 7.34321C12.1906 7.28032 12.0991 7.18555 12.0435 7.05888L11.5358 5.70355C11.2405 5.95644 11.0218 6.22677 10.8797 6.51455C10.7377 6.80232 10.6667 7.12977 10.6667 7.49688C10.6667 8.09344 10.8747 8.59971 11.2907 9.01571C11.7067 9.43171 12.2129 9.63971 12.8095 9.63971ZM4.66667 15.3574C4.16467 15.3574 3.73772 15.1861 3.38583 14.8435C3.03394 14.5009 2.85 14.0813 2.834 13.5847V13.4014H0.543833C0.387944 13.4014 0.258333 13.3485 0.155 13.2427C0.0516667 13.137 0 13.0063 0 12.8505C0 12.6948 0.0525556 12.5657 0.157667 12.4632C0.262778 12.3609 0.392833 12.3097 0.547833 12.3097H3.27533C3.41844 12.143 3.60839 11.9958 3.84517 11.868C4.08183 11.7403 4.35561 11.6764 4.6665 11.6764C4.94394 11.6764 5.19828 11.7319 5.4295 11.843C5.66061 11.9542 5.87011 12.1097 6.058 12.3097H8.09883V10.3574H0.543833C0.387944 10.3574 0.258333 10.3045 0.155 10.1989C0.0516667 10.0932 0 9.96249 0 9.80671C0 9.65094 0.0525556 9.52182 0.157667 9.41938C0.262778 9.31694 0.392833 9.26571 0.547833 9.26571H1.45617V7.30971H0.543833C0.389722 7.30971 0.260556 7.2571 0.156333 7.15188C0.0521111 7.04666 0 6.91632 0 6.76088C0 6.60544 0.0521111 6.4761 0.156333 6.37288C0.260556 6.26966 0.389722 6.21805 0.543833 6.21805H4.42067C4.52422 6.21805 4.62078 6.24382 4.71033 6.29538C4.79978 6.34705 4.86761 6.41788 4.91383 6.50788L6.54383 9.26571H8.055C8.36733 9.26571 8.63467 9.37694 8.857 9.59938C9.07933 9.82171 9.1905 10.089 9.1905 10.4014V12.2657C9.1905 12.578 9.07933 12.8454 8.857 13.0677C8.63467 13.2902 8.36733 13.4014 8.055 13.4014H6.49933V13.5847C6.48333 14.0839 6.29806 14.5042 5.9435 14.8455C5.58894 15.1868 5.16333 15.3574 4.66667 15.3574ZM2.54383 9.26571H5.2815L4.11583 7.30971H2.54383V9.26571ZM4.66583 14.3097C4.88328 14.3097 5.06989 14.2321 5.22567 14.0769C5.38156 13.9217 5.4595 13.7353 5.4595 13.5177C5.4595 13.3003 5.38139 13.1137 5.22517 12.9579C5.06894 12.802 4.88333 12.724 4.66833 12.724C4.45033 12.724 4.26344 12.8022 4.10767 12.9584C3.95178 13.1146 3.87383 13.3002 3.87383 13.5152C3.87383 13.7332 3.95144 13.9201 4.10667 14.0759C4.26189 14.2318 4.44828 14.3097 4.66583 14.3097Z" fill="#0C0C0C"/>
</svg>
