<svg width="24" height="24" viewBox="0 0 24 24" fill="none" xmlns="http://www.w3.org/2000/svg">
<path d="M7.28584 8.9926H2.66784C2.433 8.9926 2.23809 8.91468 2.08309 8.75885C1.92809 8.60301 1.85059 8.40851 1.85059 8.17535C1.85059 7.94201 1.92809 7.74793 2.08309 7.5931C2.23809 7.43826 2.433 7.36085 2.66784 7.36085H7.28584V3.92785L5.93059 5.28935C5.76559 5.45118 5.57292 5.5321 5.35259 5.5321C5.13209 5.5321 4.93734 5.45118 4.76834 5.28935C4.61334 5.12735 4.53684 4.93535 4.53884 4.71335C4.54084 4.49152 4.62284 4.2996 4.78484 4.1376L7.50509 1.4176C7.67492 1.2476 7.87475 1.1626 8.10459 1.1626C8.33459 1.1626 8.5345 1.2476 8.70434 1.4176L11.4306 4.1436C11.5886 4.30626 11.6695 4.49735 11.6733 4.71685C11.6773 4.93651 11.6009 5.12735 11.4441 5.28935C11.2731 5.45118 11.0766 5.5321 10.8546 5.5321C10.6328 5.5321 10.4408 5.44918 10.2788 5.28335L8.92334 3.92785V15.0018H21.3398C21.5708 15.0018 21.7646 15.081 21.9211 15.2393C22.0774 15.3977 22.1556 15.5938 22.1556 15.8278C22.1556 16.0602 22.0774 16.2535 21.9211 16.4078C21.7646 16.5622 21.5708 16.6393 21.3398 16.6393H16.7261V20.0723L18.0816 18.7168C18.2418 18.551 18.432 18.468 18.6523 18.4678C18.8728 18.4677 19.0702 18.5507 19.2443 18.7168C19.3988 18.8788 19.4751 19.0698 19.4731 19.2898C19.4711 19.5097 19.3892 19.7006 19.2273 19.8626L16.5011 22.5886C16.3309 22.7586 16.1319 22.8426 15.9041 22.8406C15.6764 22.8386 15.4776 22.7546 15.3076 22.5886L12.5816 19.8566C12.4196 19.6986 12.3376 19.5097 12.3356 19.2898C12.3336 19.0698 12.4099 18.8788 12.5646 18.7168C12.7376 18.5507 12.9342 18.4687 13.1543 18.4708C13.3743 18.473 13.5673 18.555 13.7333 18.7168L15.0826 20.0723V16.6393H8.92334C8.455 16.6393 8.065 16.4848 7.75334 16.1756C7.44167 15.8666 7.28584 15.4753 7.28584 15.0018V8.9926ZM15.0826 13.5018V8.9926H10.4233V7.36085H15.0826C15.5554 7.36085 15.9476 7.51551 16.2591 7.82485C16.5704 8.13401 16.7261 8.52326 16.7261 8.9926V13.5018H15.0826Z" fill="#0C0C0C"/>
</svg>
